<svg xmlns="http://www.w3.org/2000/svg" viewBox="0 0 64 64">
  <defs>
    <linearGradient id="bg" x1="0" y1="0" x2="1" y2="1">
      <stop offset="0%" stop-color="#4a0101"/>
      <stop offset="45%" stop-color="#8a0303"/>
      <stop offset="85%" stop-color="#d11a1a"/>
      <stop offset="100%" stop-color="#ff3535"/>
    </linearGradient>
    <linearGradient id="mark" x1="0" y1="0" x2="1" y2="1">
      <stop offset="0%" stop-color="#ffffff" stop-opacity="1"/>
      <stop offset="100%" stop-color="#ffffff" stop-opacity="0.85"/>
    </linearGradient>
    <radialGradient id="glow" cx="0.2" cy="0.15" r="0.7">
      <stop offset="0%" stop-color="#ffffff" stop-opacity="0.28"/>
      <stop offset="100%" stop-color="#ffffff" stop-opacity="0"/>
    </radialGradient>
  </defs>
  <rect width="64" height="64" rx="14" ry="14" fill="url(#bg)"/>
  <rect width="64" height="64" rx="14" ry="14" fill="url(#glow)"/>
  <g transform="translate(32 34) scale(2.05) translate(-16 -16)">
    <path
      d="M16 3.5c.4 2.6 2.2 4.4 4.4 6.4 2.2 2 4.1 4.2 4.1 7.7 0 5-3.9 9.2-8.5 9.2S7.5 22.6 7.5 17.6c0-2.6 1-4.5 2.4-6.1.1 1.6.9 2.8 2.2 2.8 1.4 0 2.2-1 2.2-2.6 0-2.6-1-4-1-6.6 0-.7.3-1.2.6-1.6.7-.8 1.7-.7 2.1 0z"
      fill="url(#mark)"
    />
    <circle cx="16" cy="20" r="2.2" fill="#9d0404" opacity="0.55"/>
  </g>
</svg>
